Coordinates
version=1
nRows=8
nColumns=36
inDegrees=yes

Units are S.I. units (second, meters, Newtons, ...)
If the header above contains a line with 'inDegrees', this indicates whether rotational values are in degrees (yes) or radians (no).

endheader
time	pelvis_tilt	pelvis_list	pelvis_rotation	pelvis_tx	pelvis_ty	pelvis_tz	hip_flexion_r	hip_adduction_r	hip_rotation_r	knee_angle_r	knee_angle_r_beta	ankle_angle_r	subtalar_angle_r	mtp_angle_r	hip_flexion_l	hip_adduction_l	hip_rotation_l	knee_angle_l	knee_angle_l_beta	ankle_angle_l	subtalar_angle_l	mtp_angle_l	lumbar_extension	lumbar_bending	lumbar_rotation	arm_flex_r	arm_add_r	arm_rot_r	elbow_flex_r	pro_sup_r	arm_flex_l	arm_add_l	arm_rot_l	elbow_flex_l	pro_sup_l
      0.00000000	     -6.52324525	      1.02226063	     -6.31728531	      0.81697734	      0.96072204	      0.37140089	      3.36504755	      5.52454692	      5.94806204	      0.08571708	      0.00149605	      3.40723727	    -10.31206353	     -5.98297440	     20.61463775	     -2.99802483	      0.12336448	     13.23655259	      0.23102142	     -3.93620374	    -11.27510356	     -5.98297440	      5.49574384	     -0.26967719	     -0.14119191	     34.96208970	     -7.22219901	     60.46359912	    115.01272085	     76.67509907	     30.82695062	      6.78387759	     68.38791523	    106.40638720	     91.73762792
      0.01666670	     -5.83261870	     -0.50651256	     -7.15157694	      0.81711745	      0.95926049	      0.37113160	      2.54738639	      7.32968487	      8.86772533	      0.08857242	      0.00154588	      3.84781433	    -12.34981403	     -6.25581779	     19.52112074	     -4.90215068	      0.32185882	     11.41363116	      0.19920544	     -3.24967843	     -8.63374569	     -6.25581779	      3.54347136	      2.48967087	      1.34377520	     39.81435335	    -10.74649892	     70.38488347	    120.93172491	     93.64908855	     32.58734909	      5.12285532	     66.72751856	    111.85695091	    102.89956624
      0.03333330	     -5.12858080	     -0.82515525	     -8.59558797	      0.81672080	      0.95989942	      0.37210627	      1.66177998	      7.73702096	     10.05413018	      0.09026107	      0.00157535	      3.64456545	    -12.37157608	     -6.54755781	     18.11711434	     -5.86159173	     -1.54498713	      9.24662057	      0.16138397	     -5.46507242	     -6.44744207	     -6.54755781	      2.82348606	      2.88776308	      1.94713005	     40.87227968	     -9.59550856	     69.69690511	    121.61732432	     97.79016336	     34.15870582	      4.86555139	     66.47913991	    112.33589060	    107.34174839
      0.05000000	     -4.96203834	     -0.87312227	     -8.79833962	      0.81595368	      0.95945846	      0.37244518	      1.56585002	      7.85401477	      9.85320703	      0.08913236	      0.00155565	      4.30760377	    -11.68600923	     -6.72831764	     17.86336480	     -6.19534384	     -1.62343294	      7.98668114	      0.13939388	     -5.52170279	     -5.03922221	     -6.72831764	      2.90675484	      3.06686701	      1.23550930	     41.80119499	     -8.07327433	     70.11094506	    120.78653336	     98.11307174	     34.42982212	      4.09783158	     65.09409287	    112.80365635	    106.93410787
      0.06666670	     -4.73427011	     -0.87761151	     -9.17826190	      0.81601547	      0.95987452	      0.37263761	      1.31558604	      7.91242537	      9.88500937	      0.08995085	      0.00156994	      4.52423094	    -11.36863546	     -6.88893271	     17.60374167	     -6.32597289	     -1.78999686	      7.43795379	      0.12981678	     -5.15829806	     -4.33163972	     -6.88893271	      2.78982058	      3.23763446	      1.09261269	     42.21437813	     -6.71905205	     69.84214499	    120.11404231	     98.78095468	     34.36483029	      3.75686436	     63.74855640	    113.26749465	    106.72334289
      0.08333330	     -4.70346648	     -0.71479944	     -9.63908831	      0.81503525	      0.95817824	      0.37338778	      1.32109856	      7.80161143	     10.30137040	      0.08949379	      0.00156196	      4.38254396	    -11.30862416	     -7.10209098	     17.96508774	     -6.24910387	     -1.82435919	      7.41582652	      0.12943059	     -4.82467326	     -3.80877718	     -7.10209098	      2.75882091	      3.30358442	      1.39429190	     42.42200082	     -5.79691939	     70.06797071	    119.80848876	     98.48655398	     34.05291879	      3.52600510	     62.64084078	    113.79534306	    105.81663080
      0.10000000	     -4.72910204	     -0.58948782	     -9.86396275	      0.81510336	      0.96083693	      0.37329652	      1.36176594	      7.71447291	     10.34028461	      0.08808277	      0.00153733	      4.40404301	    -11.02362109	     -7.11010367	     18.52264344	     -6.07762574	     -1.69250213	      7.48043691	      0.13055825	     -4.43175462	     -3.67161635	     -7.11010367	      2.94220206	      3.36197200	      1.72621729	     42.41170817	     -5.23720300	     70.04159761	    119.81993558	     98.04046174	     34.01688038	      3.60106138	     62.50365014	    113.76793434	    105.08491846
      0.11666670	     -4.84285790	     -0.26764255	    -10.20990883	      0.81461388	      0.96177974	      0.37428988	      1.51700861	      7.45598957	     10.58488824	      0.08881777	      0.00155016	      4.01740304	    -10.70169702	     -7.14087121	     19.06246985	     -5.83395829	     -2.01763364	      7.42285488	      0.12955326	     -4.13040203	     -3.02783368	     -7.14087121	      3.08667081	      3.28118681	      2.21132240	     41.77575420	     -4.28767889	     69.73069800	    120.34212280	     96.71051323	     32.91543942	      3.53605245	     62.20295385	    114.86775900	    103.75437374
